<svg width="25" height="24" viewBox="0 0 25 24" fill="none" xmlns="http://www.w3.org/2000/svg">
<path d="M2.5498 2.0498H4.5498L7.2098 14.4698C7.30738 14.9247 7.56048 15.3313 7.92552 15.6197C8.29056 15.908 8.74471 16.0602 9.2098 16.0498H18.9898C19.445 16.0491 19.8863 15.8931 20.2408 15.6076C20.5954 15.3222 20.8419 14.9243 20.9398 14.4798L22.5898 7.0498H5.6198M9.4998 20.9998C9.4998 21.5521 9.05209 21.9998 8.4998 21.9998C7.94752 21.9998 7.4998 21.5521 7.4998 20.9998C7.4998 20.4475 7.94752 19.9998 8.4998 19.9998C9.05209 19.9998 9.4998 20.4475 9.4998 20.9998ZM20.4998 20.9998C20.4998 21.5521 20.0521 21.9998 19.4998 21.9998C18.9475 21.9998 18.4998 21.5521 18.4998 20.9998C18.4998 20.4475 18.9475 19.9998 19.4998 19.9998C20.0521 19.9998 20.4998 20.4475 20.4998 20.9998Z" stroke="currentColor" stroke-width="2" stroke-linecap="round" stroke-linejoin="round"/>
</svg>
