<svg width="52" height="52" viewBox="0 0 52 52" fill="none" xmlns="http://www.w3.org/2000/svg">
    <path d="M26 13.4158C17.948 13.4158 11.6756 18.2135 3.97754 26C10.6039 32.6559 16.1686 38.5843 26 38.5843C35.8216 38.5843 43.0478 31.0731 48.0225 26.1377C42.9298 20.3568 35.7135 13.4158 26 13.4158ZM26 34.9762C21.1433 34.9762 17.191 30.9453 17.191 26C17.191 21.045 21.1433 17.0239 26 17.0239C30.8568 17.0239 34.809 21.0548 34.809 26C34.809 30.9551 30.8568 34.9762 26 34.9762Z" fill="currentColor" />
    <path d="M26 22.854C26 22.0773 26.2851 21.3694 26.7472 20.8189C26.5014 20.7795 26.2556 20.7599 26 20.7599C23.1686 20.7599 20.8582 23.1096 20.8582 26C20.8582 28.8905 23.1686 31.2402 26 31.2402C28.8315 31.2402 31.1419 28.8905 31.1419 26C31.1419 25.7739 31.1222 25.5478 31.1025 25.3217C30.5618 25.7444 29.8933 26 29.1559 26C27.4059 26 26 24.5941 26 22.854Z" fill="currentColor" />
</svg>