<svg width="436" height="100" viewBox="0 0 436 100" fill="none" xmlns="http://www.w3.org/2000/svg">
<path d="M117.768 99.0792C123.061 99.6641 128.85 99.976 135.207 99.976H141.066C202.802 99.976 212.087 73.2263 212.227 61.9298V60.4988H176.931C176.073 63.0997 171.941 76.5369 138.275 76.6032C134.517 84.7022 128.171 92.6803 117.764 99.0753L117.768 99.0792ZM52.9874 0.00389937H-32.1479V23.6614H50.4693C87.8313 23.6614 92.31 39.1146 92.31 49.331V50.1381C92.31 60.3545 87.4103 75.952 50.4693 75.952H-32.1479V99.9994H53.1238C114.002 100.144 126.452 72.8598 126.452 51.3469V47.3189C126.452 24.8702 113.297 0.00389937 52.9874 0.00389937ZM138.279 23.3728C171.945 23.4391 176.077 36.8764 176.935 39.4773H212.231V38.0462C212.094 26.7497 202.806 0 141.07 0H135.211C128.853 0 123.065 0.31195 117.771 0.896856C128.179 7.29183 134.521 15.2738 138.283 23.3689L138.279 23.3728Z" fill="#F2F6FF" fill-opacity="0.05"/>
<path d="M318.528 99.0792C313.235 99.6641 307.446 99.976 301.089 99.976H295.23C233.494 99.976 224.209 73.2263 224.069 61.9298V60.4988H259.365C260.223 63.0997 264.354 76.5369 298.021 76.6032C301.779 84.7022 308.125 92.6803 318.532 99.0753L318.528 99.0792ZM383.308 0.00389937H468.444V23.6614H385.827C348.465 23.6614 343.986 39.1146 343.986 49.331V50.1381C343.986 60.3545 348.886 75.952 385.827 75.952H468.444V99.9994H383.172C322.294 100.144 309.844 72.8598 309.844 51.3469V47.3189C309.844 24.8702 322.999 0.00389937 383.308 0.00389937ZM298.017 23.3728C264.35 23.4391 260.219 36.8764 259.361 39.4773H224.065V38.0462C224.202 26.7497 233.49 0 295.226 0H301.085C307.442 0 313.231 0.31195 318.524 0.896856C308.117 7.29183 301.775 15.2738 298.013 23.3689L298.017 23.3728Z" fill="#F2F6FF" fill-opacity="0.05"/>
</svg>
