<svg width="1528" height="338" viewBox="0 0 1528 338" fill="none" xmlns="http://www.w3.org/2000/svg">
<path d="M424.715 334.888C442.606 336.865 462.171 337.919 483.66 337.919H503.462C712.129 337.919 743.513 247.505 743.987 209.323V204.486H624.686C621.788 213.277 607.822 258.695 494.029 258.919C481.328 286.293 459.879 313.259 424.701 334.874L424.715 334.888ZM205.757 0.0131799H-82V79.9755H197.246C323.53 79.9755 338.668 132.207 338.668 166.739V169.467C338.668 203.998 322.107 256.718 197.246 256.718H-82V337.998H206.219C411.987 338.486 454.069 246.266 454.069 173.553V159.938C454.069 84.0613 409.603 0.0131799 205.757 0.0131799ZM494.042 79.0002C607.835 79.2243 621.801 124.642 624.699 133.433H744V128.596C743.539 90.414 712.143 0 503.475 0H483.673C462.185 0 442.62 1.05439 424.728 3.03137C459.905 24.6464 481.341 51.6256 494.055 78.987L494.042 79.0002Z" fill="#F8FBFF"/>
<path d="M1103.29 334.888C1085.39 336.865 1065.83 337.919 1044.34 337.919H1024.54C815.871 337.919 784.487 247.505 784.013 209.323V204.486H903.314C906.212 213.277 920.178 258.695 1033.97 258.919C1046.67 286.293 1068.12 313.259 1103.3 334.874L1103.29 334.888ZM1322.24 0.0131799H1610V79.9755H1330.75C1204.47 79.9755 1189.33 132.207 1189.33 166.739V169.467C1189.33 203.998 1205.89 256.718 1330.75 256.718H1610V337.998H1321.78C1116.01 338.486 1073.93 246.266 1073.93 173.553V159.938C1073.93 84.0613 1118.4 0.0131799 1322.24 0.0131799ZM1033.96 79.0002C920.165 79.2243 906.199 124.642 903.301 133.433H784V128.596C784.461 90.414 815.857 0 1024.52 0H1044.33C1065.82 0 1085.38 1.05439 1103.27 3.03137C1068.09 24.6464 1046.66 51.6256 1033.94 78.987L1033.96 79.0002Z" fill="#F8FBFF"/>
</svg>
