<svg width="68" height="74" viewBox="0 0 68 74" fill="none" xmlns="http://www.w3.org/2000/svg">
<path d="M34.0003 67C34.8542 68.2332 34.8546 68.2329 34.8551 68.2326L34.8566 68.2316L34.8612 68.2284L34.8769 68.2174L34.934 68.1773C34.9832 68.1426 35.0546 68.0919 35.1466 68.0257C35.3307 67.8933 35.5975 67.6988 35.9351 67.4456C36.6103 66.9393 37.5698 66.1976 38.7186 65.248C41.014 63.3507 44.0769 60.6137 47.1418 57.2563C53.2147 50.6038 59.5466 41.2425 59.5003 30.9963C59.5003 30.9952 59.5002 30.9941 59.5002 30.993L58.0003 31C58.0003 17.77 47.2303 7 34.0003 7C20.7703 7 10.0003 17.77 10.0003 30.97L34.0003 67ZM34.0003 67L34.8542 68.2332L33.9753 68.8418L33.1132 68.2096C33.0883 68.1914 33.0456 68.1608 32.9862 68.1183C31.9821 67.4005 26.1943 63.2625 20.5177 57.0013C14.5463 50.4148 8.45398 41.2153 8.50026 30.9665L34.0003 67Z" fill="white" stroke="white" stroke-width="3"/>
<path d="M34.0003 7C20.7703 7 10.0003 17.77 10.0003 30.97C9.91026 50.32 33.1003 66.34 34.0003 67C34.0003 67 58.0903 50.32 58.0003 31C58.0003 17.77 47.2303 7 34.0003 7ZM34.0003 43C27.3703 43 22.0003 37.63 22.0003 31C22.0003 24.37 27.3703 19 34.0003 19C40.6303 19 46.0003 24.37 46.0003 31C46.0003 37.63 40.6303 43 34.0003 43Z" fill="#4946FF"/>
</svg>
