<svg width="280" height="198" viewBox="0 0 280 198" fill="none" xmlns="http://www.w3.org/2000/svg" preserveAspectRatio="none">
<path d="M-57.4758 195.588C-47.0621 196.739 -35.6747 197.353 -23.1676 197.353H-11.642C109.809 197.353 128.075 144.709 128.351 122.478V119.662H58.9144C57.2274 124.78 49.0989 151.225 -17.1326 151.355C-24.5249 167.294 -37.0089 182.995 -57.4834 195.58L-57.4758 195.588ZM-184.916 0.60768H-352.4V47.1656H-189.87C-116.369 47.1656 -107.558 77.5776 -107.558 97.6833V99.2719C-107.558 119.378 -117.197 150.074 -189.87 150.074H-352.4V197.399H-184.648C-64.8834 197.683 -40.3907 143.988 -40.3907 101.651V93.7236C-40.3907 49.5446 -66.2713 0.60768 -184.916 0.60768ZM-17.1249 46.5978C49.1066 46.7282 57.235 73.1727 58.9221 78.2912H128.359V75.4749C128.091 53.2434 109.817 0.600006 -11.6344 0.600006H-23.1599C-35.667 0.600006 -47.0545 1.21392 -57.4681 2.36502C-36.9936 14.9503 -24.5172 30.6589 -17.1172 46.5901L-17.1249 46.5978Z" fill="currentColor" fill-opacity="1"/>
<path d="M337.475 195.588C327.061 196.739 315.674 197.353 303.167 197.353H291.641C170.19 197.353 151.924 144.709 151.648 122.478V119.662H221.085C222.772 124.78 230.9 151.225 297.132 151.355C304.524 167.294 317.008 182.995 337.483 195.58L337.475 195.588ZM464.915 0.60768H632.4V47.1656H469.869C396.368 47.1656 387.557 77.5776 387.557 97.6833V99.2719C387.557 119.378 397.196 150.074 469.869 150.074H632.4V197.399H464.647C344.883 197.683 320.39 143.988 320.39 101.651V93.7236C320.39 49.5446 346.271 0.60768 464.915 0.60768ZM297.124 46.5978C230.893 46.7282 222.764 73.1727 221.077 78.2912H151.64V75.4749C151.909 53.2434 170.182 0.600006 291.634 0.600006H303.159C315.666 0.600006 327.054 1.21392 337.467 2.36502C316.993 14.9503 304.516 30.6589 297.116 46.5901L297.124 46.5978Z" fill="currentColor" fill-opacity="1"/>
</svg>
